<svg xmlns="http://www.w3.org/2000/svg" version="1.1"  height="271.95" width="200" viewBox="0 0 160 217.55735"><title>Grêmio Barueri Futebol</title><g transform="matrix(0.53893034,0,0,0.53893034,-121.9535,-141.31343)"><path fill-rule="evenodd" fill="#f5e145" d="m289.18,296.67,18.711,0,5.7969-17.809,5.7812,17.809,18.715,0l-15.12,11.02,5.78,17.81-15.15-11.02-15.17,11.02,5.7852-17.812-15.121-11.016"/><path fill-rule="evenodd" fill="#f5e145" d="m411.29,296.67,18.711,0,5.793-17.809,5.7812,17.809,18.719,0-15.125,11.016,5.7812,17.812-15.156-11.016-15.168,11.016,5.7812-17.812-15.117-11.016"/><path fill-rule="evenodd" fill="#f5e145" d="m350.23,280.02,18.715,0,5.7891-17.809,5.7812,17.809,18.719,0-15.125,11.016,5.7812,17.812-15.156-11.016-15.164,11.016,5.7812-17.812-15.121-11.016"/><path fill-rule="evenodd" fill="#FFF" d="m229.88,381.29c74.73-63.086,214.96-65.527,289.7,0-4.0117,2.7226-7.2383,6.4219-9.8125,10.938,0.625,4.5117,1.1914,9.0156,1.6992,13.504l3.1406,2.7188,4.8867,12.164-0.54297,12.527-1.0898,6.5391,2.7227,10.711s0.54297,12.531-1.4492,16.887c-1.9922,4.3594-4.5273,7.2656-4.5273,7.2656l-0.69922,0.34375c-4.7,85.43-41.71,157.53-139.18,187.91-97.78-30.48-134.73-102.94-139.23-188.71l-2.4531-2.1328-3.5234-9.5234-0.35156-10.758,1.9375-12.695-1.5859-12.176,1.2344-10.754,6.3476-11.992,1.0625,0.0703c0.46485-3.9531,0.97266-7.918,1.5234-11.895-2.5703-4.5156-5.7969-8.2148-9.8125-10.938"/><path fill-rule="evenodd" fill="#f5e145" d="m427.26,344.22c-0.44922,7.7891-0.87891,15.578-1.3008,23.363-11.551-2.3164-29.391-3.8008-49.402-3.8008-20.109,0-38.02,1.4961-49.566,3.8359-0.35938-7.9492-0.73828-15.895-1.1367-23.832l0.1289-0.0234c15.895-3.0391,32.328-4.6055,48.777-4.6562,16.41-0.0508,32.836,1.4024,48.77,4.3828,1.2422,0.23828,2.4883,0.47656,3.7305,0.73047zm-5.7774,119.45c-2.1719,55.68-3.5898,111.39-4.0625,167.1-12.598,7.2109-26.766,13.355-42.66,18.25-16.191-4.9883-30.59-11.262-43.363-18.652,0.61328-55.613,0.25781-111.25-1.0898-166.82l49.199-2.0664,41.977,2.1836"/><path fill-rule="evenodd" fill="#cf192e" d="m295.61,602.82c-0.53125-45.27-1.8125-90.699-3.6953-136.06l-31.875,2.9141-15.824,2.875c2.418,39.957,12.305,77.102,33.004,107.75v-0.004c5.3789,7.9726,11.492,15.504,18.391,22.523zm-7.2656-209.47c-0.70703-12.793-1.4609-25.566-2.25-38.32-3.0039,1.1523-5.9688,2.3633-8.875,3.6406-14.059,6.1484-27.031,13.723-38.387,22.707,3.8008,2.5391,6.8516,6.0039,9.2891,10.23-0.50781,3.6016-0.97265,7.207-1.4023,10.812l27.719-6.6797,13.906-2.3906"/><path fill-rule="nonzero" fill="#003568" d="m522.54,380.68-1.9297,1.3086c-3.7969,2.5703-6.7773,6.0703-9.0547,9.9531,0.53906,3.8945,1.0273,7.7969,1.4726,11.703l0.21875,0.0625c9.1133,12.168,10.645,23.93,6.9883,35.414,5.3945,18.047,3.2031,30.336-5.2812,37.863l-0.0156-0.0117c-6.08,84.09-43.81,158.88-139.73,188.78l-0.50782,0.15625-0.5039-0.15625c-95.93-29.9-133.65-104.71-139.72-188.79-8.4648-7.5195-10.648-19.805-5.2578-37.828-3.6562-11.484-2.1211-23.246,6.9883-35.414l0.17188-0.0469c0.4414-3.9141,0.92578-7.8203,1.4648-11.719-2.2734-3.8828-5.2578-7.3906-9.0586-9.9531l-1.8711-1.2695c80.312-69.137,214.95-66.199,295.62-0.0391zm-67.676,221.14c0.66406-43.516,1.9688-87.961,3.8672-133.27-27.387-2.5586-59.559-4.4883-84-4.1484-45.551-0.62891-117.97,6.6133-136.21,11.152,5.0273,81.461,40.738,150.46,136.18,180.41,95.469-29.957,131.23-98.938,136.25-180.41-1.5586-0.38672-3.5156-0.79688-5.8164-1.2188-2.5938,39.258-12.477,75.738-32.836,105.93-5.1328,7.6016-10.93,14.809-17.441,21.559zm7.6328-210.38c0.64844-11.742,1.332-23.547,2.0547-35.395l0.11719-0.86328c2.5781,1.0078,5.1211,2.0742,7.6367,3.1797,13.945,6.1602,26.883,13.816,38.324,23.004-3.7969,2.5391-6.8477,6.0039-9.293,10.23,0.42968,3.043,0.83203,6.0781,1.2031,9.1172,1.9141,0.51172,3.8359,1.043,5.7656,1.582-0.42188-3.582-0.88672-7.1641-1.3906-10.762,2.2812-4,6.2578-7.8828,9.9297-10.801-75.367-60.793-206.45-63.324-284.29-0.004,3.6719,2.918,7.7305,6.707,10.016,10.711-0.50781,3.625-0.97266,7.2422-1.4024,10.855l-0.29687,1.5898-2.6875,2.5742c-6.3516,8.1992-8.5039,17.836-4.5195,29.594,3.7539-2.0742,9.043-2.8594,14.652-3.3711-6.2148,2.2656-11.594,4.8164-15.137,7.9922-3.8047,10.535-2.832,22.996,2.4024,31.438,47.129-8.3984,93.07-11.844,139.14-11.418,46.074-0.42578,91.672,3.1484,138.8,11.547,6.1953-6.6641,6.0391-21.031,2.75-31.566-3.5469-3.1758-8.9219-5.7266-15.141-7.9922,5.6133,0.51172,10.898,1.2969,14.66,3.3711,3.9805-11.758,1.8242-21.395-4.5273-29.594-0.60938-0.17187-1.2148-0.33984-1.8242-0.51172l3.2109-0.53125c-13.398-4.8555-30.648-8.8672-50.387-11.871l0.13281-2.1211,0.0898,0.0156"/><path fill-rule="nonzero" fill="#003568" d="m359.51,626.67-10.688,0,0-2.7109,3.3789,0,0-8.1953-3.3789,0,0-2.5273c0.51562,0,1.0117-0.0312,1.4844-0.0898,0.47657-0.0586,0.86719-0.16016,1.1797-0.30469,0.37109-0.17188,0.65625-0.40234,0.83984-0.67969,0.1875-0.27344,0.29297-0.625,0.32422-1.0391h3.5586v12.836h3.3008v2.7109"/><path fill-rule="nonzero" fill="#003568" d="m375.83,618.05c0,1.2969-0.16796,2.5039-0.51171,3.625-0.33985,1.1172-0.86719,2.0547-1.5703,2.8203-0.75781,0.82422-1.6992,1.4414-2.8281,1.8555-1.1211,0.41406-2.4375,0.62109-3.9297,0.62109-0.53906,0-1.1094-0.0312-1.7227-0.0937-0.61718-0.0625-1.0234-0.11719-1.2188-0.16406v-3.0547h0.42969c0.21875,0.0977,0.52344,0.20703,0.92188,0.3125,0.39843,0.11328,0.9375,0.16797,1.6289,0.16797,0.5586,0,1.1055-0.0703,1.6445-0.19922,0.53907-0.14063,1-0.35156,1.3867-0.64063,0.42578-0.3125,0.76953-0.70312,1.043-1.1797,0.26953-0.46875,0.45703-1.0274,0.54688-1.6875-0.625,0.34765-1.1992,0.60937-1.7344,0.79687-0.53515,0.1836-1.1992,0.27735-1.9922,0.27735-0.60156,0-1.1797-0.0742-1.7266-0.21485-0.55078-0.14062-1.0469-0.35937-1.5-0.66015-0.59375-0.41016-1.0703-0.94532-1.4219-1.6211-0.35938-0.66797-0.53516-1.5117-0.53516-2.5312,0-1.6641,0.58984-3.0078,1.7891-4.0547,1.1953-1.0469,2.7578-1.5664,4.6914-1.5664,1,0,1.8789,0.12109,2.6523,0.3789,0.76953,0.25,1.4336,0.64063,1.9961,1.1562,0.64843,0.59766,1.1367,1.3594,1.4688,2.2812,0.33203,0.92188,0.49218,2.0469,0.49218,3.375zm-4.1133-0.58593c0-0.84375-0.082-1.5391-0.2539-2.0859-0.16797-0.54688-0.40235-0.96484-0.69532-1.2656-0.20312-0.22265-0.44531-0.3789-0.71875-0.47656-0.27343-0.0976-0.55468-0.14844-0.85937-0.14844-0.28125,0-0.54688,0.0469-0.79688,0.14454-0.25781,0.0898-0.5039,0.2539-0.73828,0.48046-0.22656,0.22266-0.40234,0.51563-0.54297,0.875-0.14062,0.36329-0.21484,0.79297-0.21484,1.2891,0,0.48828,0.0781,0.89843,0.23047,1.2266,0.14844,0.32812,0.35937,0.58984,0.625,0.78516,0.25,0.1875,0.54687,0.3164,0.88672,0.39453,0.33984,0.0742,0.70703,0.11328,1.1094,0.11328,0.32813,0,0.67578-0.0391,1.0547-0.11719,0.375-0.0781,0.67578-0.16016,0.88281-0.24219,0-0.0781,0.004-0.1875,0.0156-0.33203,0.0117-0.14062,0.0156-0.35156,0.0156-0.64062"/><path fill-rule="nonzero" fill="#003568" d="m391.87,622.34c0,1.375-0.60938,2.5-1.8203,3.3711-1.2031,0.87891-2.8633,1.3164-4.9688,1.3164-1.1797,0-2.1953-0.125-3.043-0.35157-0.84375-0.24218-1.543-0.57031-2.0938-0.98437-0.54688-0.41016-0.95313-0.88672-1.2109-1.4375-0.25781-0.54688-0.39063-1.1328-0.39063-1.7695,0-0.77735,0.23438-1.4648,0.70313-2.0664,0.46875-0.60156,1.2773-1.1211,2.4375-1.5781v-0.0625c-0.9336-0.41407-1.6172-0.9375-2.0586-1.5703-0.43359-0.63281-0.65234-1.3633-0.65234-2.1953,0-1.2266,0.58594-2.2344,1.7617-3.0195,1.1797-0.78516,2.707-1.1758,4.5898-1.1758,1.9805,0,3.5312,0.35547,4.6484,1.0664,1.125,0.71484,1.6797,1.6602,1.6797,2.8476,0,0.73828-0.23047,1.3906-0.70313,1.9688-0.47265,0.57031-1.1953,1.0625-2.1719,1.4648v0.0625c1.1172,0.41015,1.9414,0.96093,2.4844,1.6562,0.53516,0.6914,0.8086,1.5117,0.8086,2.457zm-4.4453-7.1602c0-0.53125-0.21093-0.94922-0.6289-1.2617-0.41797-0.3164-0.97656-0.47265-1.6719-0.47265-0.25781,0-0.51562,0.0351-0.78906,0.0976-0.26953,0.0586-0.51172,0.15235-0.73437,0.26953-0.20704,0.11719-0.38672,0.27344-0.51563,0.46485-0.13672,0.1875-0.20703,0.41015-0.20703,0.64843,0,0.41407,0.11719,0.72657,0.36328,0.95704,0.23828,0.23046,0.62891,0.45703,1.1719,0.6875,0.20312,0.082,0.47656,0.1875,0.82421,0.3125,0.34766,0.11718,0.77344,0.2539,1.2656,0.40625,0.33203-0.3711,0.56641-0.70704,0.70703-1.0117,0.14063-0.29688,0.21484-0.66407,0.21484-1.0977zm0.33204,7.3398c0-0.5039-0.12891-0.8789-0.38672-1.1406-0.25391-0.25781-0.78516-0.55078-1.5898-0.88281-0.23437-0.10547-0.58203-0.23438-1.0312-0.38282-0.45312-0.15234-0.83203-0.28515-1.1367-0.39843-0.30859,0.26953-0.59375,0.59765-0.83593,0.98828-0.25,0.3789-0.3711,0.8164-0.3711,1.293,0,0.72265,0.26953,1.293,0.80078,1.7226,0.53125,0.42969,1.2305,0.64063,2.0938,0.64063,0.22657,0,0.49219-0.0352,0.80079-0.0977,0.30859-0.0703,0.57812-0.17187,0.79687-0.30859,0.25781-0.16016,0.46875-0.34766,0.625-0.5586,0.15625-0.21875,0.23438-0.50781,0.23438-0.875"/><path fill-rule="nonzero" fill="#003568" d="m407.14,618.05c0,1.2969-0.17578,2.5039-0.51953,3.625-0.33984,1.1172-0.86719,2.0547-1.5664,2.8203-0.76172,0.82422-1.7031,1.4414-2.832,1.8555-1.125,0.41406-2.4375,0.62109-3.9297,0.62109-0.53125,0-1.1094-0.0312-1.7266-0.0937-0.61328-0.0625-1.0195-0.11719-1.2148-0.16406v-3.0547h0.42969c0.22265,0.0977,0.52343,0.20703,0.92578,0.3125,0.39453,0.11328,0.9375,0.16797,1.6289,0.16797,0.5586,0,1.1055-0.0703,1.6406-0.19922,0.53515-0.14063,1-0.35156,1.3867-0.64063,0.42578-0.3125,0.77343-0.70312,1.0469-1.1797,0.26563-0.46875,0.45313-1.0274,0.54688-1.6875-0.625,0.34765-1.2031,0.60937-1.7422,0.79687-0.53125,0.1836-1.1953,0.27735-1.9922,0.27735-0.59765,0-1.1758-0.0742-1.7226-0.21485-0.55079-0.14062-1.0508-0.35937-1.4961-0.66015-0.59765-0.41016-1.0781-0.94532-1.4297-1.6211-0.35546-0.66797-0.53125-1.5117-0.53125-2.5312,0-1.6641,0.59766-3.0078,1.7891-4.0547,1.1953-1.0469,2.7578-1.5664,4.6914-1.5664,1,0,1.8789,0.12109,2.6524,0.3789,0.76953,0.25,1.4336,0.64063,1.9961,1.1562,0.64844,0.59766,1.1367,1.3594,1.4688,2.2812,0.32813,0.92188,0.5,2.0469,0.5,3.375zm-4.1211-0.58593c0-0.84375-0.0859-1.5391-0.25391-2.0859-0.16797-0.54688-0.40234-0.96484-0.69531-1.2656-0.20313-0.22265-0.44141-0.3789-0.71485-0.47656-0.27343-0.0976-0.55859-0.14844-0.85937-0.14844-0.28516,0-0.54688,0.0469-0.80469,0.14454-0.25,0.0898-0.5,0.2539-0.73437,0.48046-0.22657,0.22266-0.40235,0.51563-0.54297,0.875-0.14063,0.36329-0.21485,0.79297-0.21485,1.2891,0,0.48828,0.0781,0.89843,0.23047,1.2266,0.15235,0.32812,0.35938,0.58984,0.625,0.78516,0.2461,0.1875,0.54688,0.3164,0.88672,0.39453,0.33594,0.0742,0.71094,0.11328,1.1133,0.11328,0.32422,0,0.66797-0.0391,1.0508-0.11719,0.38282-0.0781,0.67188-0.16016,0.88282-0.24219,0-0.0781,0.008-0.1875,0.0156-0.33203,0.008-0.14062,0.0156-0.35156,0.0156-0.64062"/><path fill-rule="nonzero" fill="#003a68" d="m255.15,408.8c6.668-1.4024,13.348-2.7344,20.051-3.9531h0.0156l0.0234-0.004v-0.0117h0.0156c0.11328-0.0234,0.22265-0.0352,0.33984-0.0508,0.55859-0.0937,1.0391-0.15625,1.4336-0.19141v-0.004c0.51172-0.043,1.1133-0.0586,1.8008-0.043,12.312,0.26563,15.332,15.07,10.191,23.758,0.53125,0.53125,1.0156,1.1172,1.4492,1.7578l0.004,0.0117,0.0195,0.0195,0.0156-0.0117,0.004,0.004,0.0742,0.11328,0.69531-2.4727c2.1875-7.8476,4.3828-15.695,6.5898-23.543,0.55078-1.9726,2.2305-3.3242,4.1445-3.5586v-0.004l0.0195-0.004,0.14843-0.0156c3.8789-0.47656,7.7539-0.95703,11.629-1.4375,2.5469-0.30469,4.8672,1.375,5.4141,3.8203,2.1641,7.3867,4.3359,14.77,6.4766,22.168l0.004,0.008v0.0117h0.0156l0.004,0.008c0.0312,0.10156,0.0547,0.21093,0.0781,0.32031l0.45312,1.5625v-24.625c0-2.707,2.1797-4.9023,4.8789-4.9336,4.207-0.28516,9.6016-0.64844,13.809-0.90235v2.1484c-3.1523,0.19141-7.4102,0.47266-10.484,0.67969l-3.3047,0.22265c-1.5234,0.0195-2.7539,1.2656-2.7539,2.7891v39.672c-1.5664-5.3945-3.1328-10.781-4.6914-16.152-0.0156-0.0625-0.0312-0.125-0.0469-0.1875v-0.0117h-0.0117v-0.0117c-1.8867-6.5078-3.4492-11.828-5-17.125l-1.5195-5.1641c-0.30469-1.3867-1.6211-2.3359-3.0547-2.1641l-4.543,0.5625c-2.7227,0.33594-5.3555,0.66407-7.1367,0.87891l-0.0977,0.0117-0.0273,0.004v0.004c-1.082,0.13281-2.0312,0.89844-2.3438,2.0117-1.1016,3.9219-2.1992,7.8477-3.2969,11.77-0.69922,2.4766-1.75,6.2422-3.293,11.762-0.75781,2.7148-1.6172,5.7812-2.5234,8.9961-0.17188-1.4336-0.5-2.7422-0.98829-3.9297-0.11718-0.28516-0.25-0.57422-0.39453-0.85938-0.0273-0.0781-0.0625-0.14844-0.10156-0.22265-0.12891-0.23047-0.28516-0.49219-0.46875-0.78125-0.0391-0.0742-0.0898-0.14454-0.13281-0.21875l-0.004-0.004-0.0117,0.004-0.008-0.0117-0.004-0.004c-0.6914-1.0195-1.5391-1.8711-2.5469-2.5547,0.10937-0.1289,0.21094-0.26172,0.30859-0.39453,0.1211-0.16406,0.25782-0.35937,0.40235-0.58594,0.0469-0.0703,0.0898-0.13671,0.13281-0.21093l0.008-0.004h-0.008c0.625-1.0039,1.125-2.0664,1.4961-3.168,0.0195-0.0469,0.0352-0.0937,0.0547-0.14062,0.0859-0.28516,0.16016-0.51953,0.20703-0.69922l-0.008-0.004c0.38672-1.418,0.58203-2.9141,0.58203-4.4805h0.008v-0.008h-0.008c0-2.7695-0.60156-5.1719-1.793-7.207-0.2539-0.42969-0.51562-0.82813-0.78515-1.1836-0.23829-0.3086-0.4961-0.60547-0.76954-0.89844-0.0547-0.0742-0.11718-0.13672-0.17968-0.20313l-0.008-0.004-0.008,0.004c-1.8008-1.8359-4.1484-2.7734-7.0039-2.8398-0.5625-0.008-1.0859,0.008-1.5625,0.0469-0.41016,0.0312-0.88672,0.10157-1.4219,0.1875-0.0586,0.0117-0.12891,0.0156-0.18359,0.0312h-0.0156v0.008h-0.0117-0.0117c-3.7383,0.67968-7.0976,1.3203-10.18,1.9297-3.0938,0.61719-6.4453,1.3047-9.9648,2.0469-1.3555,0.1875-2.4062,1.3477-2.4062,2.7656v42.906h0.004c0,0.13282,0.0117,0.26563,0.0312,0.39844,0.21484,1.5156,1.625,2.5781,3.1484,2.3633,3.3242-0.48437,6.4609-0.93359,9.3047-1.3242,2.75-0.375,5.8203-0.78125,9.3047-1.2188,0.69531-0.0898,1.8125-0.33984,3.3359-0.75v-0.004l0.89844-0.25,0.99218-0.29297,0.0664-0.0195c1.0742-0.3125,2.0117-0.65235,2.8164-1.0352,0.80468-0.3789,1.5156-0.8125,2.125-1.2969,0.0664-0.0508,0.13281-0.0977,0.19531-0.15235,0.55078-0.46484,1.0625-0.97265,1.543-1.5195l-0.0156,0.0547-0.004,0.008h0.004c-0.0937,0.33594-0.13281,0.6875-0.0937,1.0469,0.15625,1.5273,1.5234,2.6406,3.0508,2.4844l1.0078-0.10547c3.4375-0.35547,6.8984-0.71875,9.9844-0.99609l0.0312-0.008c1.1758-0.10547,2.1953-0.95313,2.4609-2.1641l0.41406-1.8438,0.85547-3.8281c1.957-0.17969,3.9922-0.35938,7.8789-0.69531l0.3125,1.3672c0.40234,1.7109,0.71875,3.0781,0.8789,3.7578h0.004c0.30469,1.2969,1.5117,2.2226,2.8828,2.1406,3.3594-0.21875,6.7188-0.4375,10.074-0.65234l1.1836-0.0781,0.0469-0.004v-0.004c0.19922-0.0156,0.39844-0.043,0.60156-0.10547,0.44141-0.1289,0.83203-0.35937,1.1445-0.66406,0.50391,0.38672,1.1367,0.60937,1.8164,0.57812,3.2227-0.14062,6.4414-0.28906,9.6641-0.43359l0.99219-0.043,0.082,0.004c1.5391,0,2.7891-1.25,2.7891-2.793v-14.016c0.0508,0.125,0.10157,0.2461,0.15625,0.3711,0.0117,0.0508,0.0274,0.0937,0.0469,0.13672,0.95703,2.3633,1.918,4.7383,2.8828,7.1055,0.96094,2.3672,1.9258,4.7422,2.8945,7.1094l0.004-0.004c0.42578,1.0391,1.457,1.7617,2.6445,1.7344,2.0625-0.0508,4.1055-0.10156,6.0938-0.13281,2.0156-0.0352,4.0234-0.0625,5.9922-0.0781,0.36328,0.0156,0.73437-0.0469,1.0938-0.1875,1.4336-0.55078,2.1445-2.1641,1.5938-3.5938l-1.1641-2.9961c-1.3164-3.3984-2.6328-6.7969-4.0781-10.602v-0.004c-0.21094-0.54688-0.53906-1.2344-1.0039-2.0703-0.0273-0.0703-0.0625-0.13672-0.10156-0.20703l-0.30859-0.51563-0.20313-0.34766c-0.0391-0.0781-0.0859-0.15234-0.1289-0.22656l-0.008-0.0117c-0.53515-0.86328-1.0078-1.5664-1.418-2.0976-0.0312-0.0508-0.0781-0.10547-0.11718-0.16016l0.11718-0.0977,0.0703-0.0547,0.004-0.004,0.0156-0.0117,0.004-0.008c0.90235-0.76172,1.7109-1.625,2.4141-2.5938,0.625-0.86719,1.1836-1.8438,1.668-2.9219,0.0391-0.0781,0.0781-0.15625,0.11328-0.23437,0.41406-0.96094,0.74609-1.9922,0.98437-3.0977,0.0117-0.043,0.0391-0.21484,0.10156-0.55078l0.0156-0.082c0.11719-0.64062,0.20703-1.3047,0.26953-1.9922v12.812c0,1.2188,0.0977,2.582,0.28906,4.0742,0.19532,1.4805,0.45703,2.9766,0.78907,4.4922,0.23828,1.0898,0.58593,2.1758,1.0469,3.2539,0.44141,1.0508,0.98828,2.082,1.6406,3.0859,0.9414,1.4648,1.9648,2.6953,3.0703,3.707,0.20703,0.1836,0.43359,0.37891,0.68359,0.57813,0.125,0.10547,0.29688,0.23047,0.50781,0.38672,0.0625,0.0508,0.125,0.10547,0.19922,0.15234,1.1367,0.80469,2.4648,1.4453,3.9844,1.9102,0.082,0.0351,0.17187,0.0625,0.26562,0.0898,0.25391,0.0703,0.56641,0.15235,0.92188,0.23047h0.0117c0.36328,0.0898,0.6914,0.15234,0.96484,0.19922h0.0156c1.4726,0.25781,2.875,0.42578,4.1992,0.51953,0.17188,0.0117,0.42969,0.0234,0.80079,0.043,0.19921,0.0117,0.45703,0.0156,0.7539,0.0195h0.0234,0.004,0.0117l0.20704,0.004h0.0117c2.2305,0.0312,4.2734-0.20703,6.1211-0.71485,0.082-0.0156,0.16015-0.0312,0.24609-0.0547,0.37891-0.10547,0.76563-0.23438,1.1484-0.375,0.375-0.13672,0.73828-0.28907,1.1016-0.44922v-0.008l0.0195-0.008,0.14453-0.0625v-0.008l0.0117-0.008c1-0.46485,1.9531-1.0938,2.8633-1.8828,0.875-0.76562,1.7109-1.668,2.5117-2.7188l-0.004-0.004,0.004-0.004c1.1524-1.5195,2.0859-3.2266,2.7891-5.1094,0.125-0.33985,0.2539-0.70703,0.375-1.0977,0.13671-0.4375,0.25-0.82031,0.33593-1.1367v-0.008c0.36328-1.3789,0.62891-2.7656,0.80078-4.1719,0.17579-1.4258,0.26563-2.8906,0.26563-4.3906v-28.07h-0.008c0-1.4805-1.1602-2.7109-2.6484-2.7812l-0.20313-0.0117c-3.4375-0.16797-6.8516-0.33203-10.422-0.42578-0.10156-0.008-0.21094-0.0156-0.3125-0.0156-1.543,0-2.7891,1.2461-2.7891,2.7891v28.809c0,1.5117-0.19532,2.7226-0.57813,3.6211-0.80859,1.8906-3.4531,2.3945-4.7539,0.61719-0.89454-1.2305-1.0391-2.9609-1.0391-4.4336v-28.863h-0.0117c0-1.5312-1.2422-2.7773-2.7773-2.7773-3.3867,0.0156-6.7344,0.0391-10.074,0.0664l-0.74219,0.004c-1.5312,0.004-2.7656,1.25-2.7656,2.7774v11.02c-0.14453-1.6094-0.45313-3.0977-0.91406-4.4766-0.14063-0.41407-0.28907-0.79688-0.44141-1.1524-0.125-0.30859-0.28125-0.63281-0.46484-0.98437-0.0234-0.0508-0.0469-0.10157-0.0703-0.14844l-0.008-0.008h-0.004c-0.98438-1.8711-2.2305-3.3125-3.7148-4.3359-0.3164-0.22266-0.63281-0.41797-0.9414-0.58203-0.32422-0.17188-0.64063-0.32422-0.95313-0.45703l-0.0117-0.004-0.0273-0.008-0.004-0.004c-1.543-0.625-3.5391-1.0117-5.9609-1.1016-0.42187-0.0156-0.88671-0.0234-1.3828-0.0195-0.52344,0.004-1.0117,0.0195-1.4648,0.0391l-0.0547,0.004c-1.4023,0.0703-2.7734,0.14843-4.1367,0.22656v-2.1484c1.3438-0.0781,2.6914-0.15234,4.0391-0.21875l0.0469-0.008c5.1914-0.24609,10.664,0.44141,14.309,4.4922v-0.12891c0-2.7266,2.207-4.9375,4.9375-4.9375,0.125,0,0.25782,0.004,0.38672,0.0195l0.28516-0.004c3.3555-0.0274,6.7109-0.0508,10.133-0.0664,2.7148,0,4.9102,2.2031,4.9102,4.918h0.0273v28.863c0,3.5117,2.0742,5.3359,2.0742,0.19531v-28.812c0-2.7266,2.2109-4.9336,4.9375-4.9336,0.18359,0,0.36719,0.0117,0.54687,0.0312,3.5938,0.0898,6.9336,0.25781,10.293,0.41797l0.19532,0.0117c1.4062,0.0664,2.6445,0.71484,3.5,1.707,0.88281-0.84766,2.0859-1.3711,3.4102-1.3711,0.20313,0,0.40625,0.0156,0.60156,0.0391,9.6445,0.73046,19.285,1.5898,28.898,2.6016,1.2891,0.13281,2.418,0.7539,3.207,1.6602,0.79297-0.54687,1.75-0.86718,2.7852-0.86718,0.21484,0,0.42969,0.0156,0.64062,0.043v-0.004c6.0664,0.80078,12.125,1.668,18.176,2.6406,1.8789,0.30469,3.5742,0.67969,5.0781,1.1367,1.6445,0.5,3.0859,1.1133,4.3164,1.8477l0.0156,0.008,0.004-0.008v0.004c0.35156,0.20703,0.70703,0.44531,1.0703,0.70312l0.0156,0.0117,0.004-0.0117c0.30469,0.21875,0.64063,0.48828,1.0117,0.80859,1.1719,1.0234,2.207,2.2344,3.0938,3.625,0.1875-2.5547,2.3203-4.5703,4.9219-4.5703,0.49609,0,0.97265,0.0742,1.4258,0.21094,3.9141,0.79687,6.5078,1.3516,9.0976,1.9141l1.3281,0.28125c2.3203,0.49219,3.9062,2.5391,3.9062,4.8203h0.004v16.957h-2.1406v-16.953h-0.008c0-1.2891-0.89844-2.4453-2.207-2.7227-3.5391-0.75781-7.0781-1.5234-10.629-2.2461-0.24219-0.0742-0.50781-0.10937-0.77734-0.10937-1.543,0-2.793,1.2461-2.793,2.7891v38.461c-1.2578-3.2148-2.4922-6.4453-3.7266-9.6719-0.6914-1.8125-2.0039-4.0664-3.1484-5.6367,1.8164-1.1836,3.2226-2.8398,4.1797-4.7734,1.7695-3.5859,1.8828-8.1445,1.0703-11.93-0.3125-1.4727-0.80078-2.8555-1.4492-4.1562-2.0625-4.0703-4.9883-6.3164-9.207-7.6016-7.1211-2.1719-15.297-2.6953-22.684-3.6719-0.1914-0.0391-0.38672-0.0625-0.58984-0.0625-1.5391,0-2.7891,1.25-2.7891,2.7891v45.891c0,1.4336,1.0976,2.6523,2.5469,2.7734l1.8047,0.16797c3.3984,0.29688,6.8203,0.60157,8.8203,0.79297,0.16406,0.0274,0.32813,0.043,0.5,0.043,1.5391,0,2.7891-1.2461,2.7891-2.7891v-12.633c1.8242,4.5195,3.6211,9.0508,5.4492,13.559l0.53125,1.3125h0.004c0.37109,0.91016,1.2109,1.6016,2.2617,1.7188,4.0742,0.47266,8.1406,0.96484,12.211,1.457,0.72265,0.082,1.4609-0.12109,2.0352-0.56641,0.42969,0.54688,1.0664,0.9336,1.8125,1.0352,3.5391,0.48047,7.0859,0.97656,10.625,1.4766,1.6953,0.35547,3.3672-0.95312,3.3672-2.7305v-26.012h2.1406v26.008c0,2.7226-2.207,4.9336-4.9297,4.9336-0.35938,0-0.69922-0.0391-1.0312-0.10547-1.6953-0.23828-3.3828-0.48047-5.0742-0.71484-2.2266-0.30469-4.1055-0.57031-5.3867-0.74219-0.66797-0.0859-1.2891-0.30469-1.8359-0.6289-2.3281,0.69531-5.7539-0.28516-8.0938-0.57032-2.3906-0.28515-4.5-0.53125-6.0859-0.71875-1.8516-0.20703-3.3516-1.4297-4.0117-3.0508l-0.60938-1.5078-1.2305-3.0547v1.5312c0,2.7227-2.2109,4.9375-4.9375,4.9375-0.30469,0-0.59375-0.0312-0.8789-0.0781-1.5977-0.15235-5.1797-0.46875-8.7734-0.78907l-1.6524-0.14453c-1.125-0.0976-2.1289-0.5625-2.9062-1.2695-0.7539,0.47656-1.6523,0.75781-2.6211,0.75781-0.11719,0-0.23047,0-0.34766-0.0117v0.0117c-2.9062-0.20703-5.8203-0.40625-8.7266-0.59765v-2.1367c2.9141,0.1875,5.8281,0.39062,8.7383,0.59375,0.11328,0.008,0.22266,0.0195,0.33594,0.0195,1.543,0,2.7891-1.25,2.7891-2.7891v-10.453c0-1.4414-1.1094-2.6602-2.5664-2.7773-5.375-0.42578-10.742-0.83984-16.121-1.207v-3.6094c4.4258,0.33203,9.0508,0.71875,13.688,1.1094,0.11328,0.0156,0.23438,0.0195,0.35157,0.0195,1.543,0,2.793-1.25,2.793-2.7891v-9.418h-0.008c0-1.4258-1.0898-2.6406-2.5312-2.7695-3.9141-0.35938-7.4766-0.6875-8.4375-0.77344-1.875-0.16406-3.8125-0.32422-5.8555-0.48438v-1.8203c2.2031,0.17969,4.1836,0.35547,6.0312,0.52344,2.6016,0.24609,5.6758,0.54297,8.8242,0.85156,0.16016,0.0312,0.32813,0.043,0.4961,0.043,1.543,0,2.793-1.25,2.793-2.7852v-9.8516h-0.008c0-1.4102-1.0664-2.6211-2.5-2.7656-9.75-1.0274-19.391-1.8828-28.953-2.6055-0.10547-0.0117-0.21875-0.0195-0.32813-0.0195-1.5469,0-2.7891,1.25-2.7891,2.7891v46.992h0.004c0,1.4766,1.1602,2.7109,2.6523,2.7773,6.4727,0.32813,14.129,0.78125,20.602,1.1992v2.1367c-6.5-0.41797-14.195-0.875-20.699-1.207-2.6367-0.1211-4.6914-2.2969-4.6914-4.9102h-0.0156v-5.8164c-0.64062,1.3438-1.4023,2.5859-2.2812,3.7461l-0.008,0.008,0.008,0.0117c-0.88281,1.1602-1.8203,2.1719-2.8125,3.0312-1.0547,0.91797-2.1719,1.6484-3.3555,2.207l-0.0234,0.0117,0.004,0.008-0.14062,0.0625-0.0234,0.0117,0.004,0.008c-0.34766,0.16016-0.76954,0.32813-1.2539,0.50782-0.32813,0.12109-0.76172,0.26171-1.2891,0.41015-0.0859,0.0234-0.16797,0.0508-0.25391,0.0703-2.0508,0.56641-4.3086,0.82813-6.75,0.80079l-0.0195-0.004v0.004l-0.19922-0.004h-0.0195c-0.36719-0.008-0.64844-0.0156-0.82813-0.0273-0.48046-0.0195-0.74218-0.0352-0.85156-0.0391-1.4102-0.0976-2.8867-0.27734-4.4297-0.54297l-0.0156-0.004c-0.32813-0.0586-0.69531-0.12891-1.0938-0.21875-0.0898-0.0234-0.17969-0.0508-0.27344-0.0742-0.21094-0.0547-0.46875-0.12109-0.75-0.20313l-0.008,0.0156c-1.8125-0.51953-3.4492-1.3047-4.8945-2.332l-0.004-0.004-0.10937-0.0742-0.004,0.004-0.004-0.004-0.0898-0.0664c-0.27344-0.19532-0.47266-0.34766-0.60547-0.45313-0.30078-0.24609-0.5625-0.46484-0.78125-0.66406-0.125-0.11719-0.25-0.23047-0.375-0.35156-0.26562,1.6719-1.3906,3.1641-3.0859,3.8164-0.64062,0.25-1.293,0.35157-1.9375,0.33203-1.9219,0.0156-3.8906,0.0391-5.8906,0.0742-1.9453,0.0391-3.9883,0.082-6.0781,0.13672-2.1016,0.0469-3.9258-1.2305-4.6719-3.0703l-0.0117,0.004-1.8438-4.5352v3.0234c0,2.7266-2.2148,4.9375-4.9375,4.9375l-0.16016-0.004c-8.6406,0.39063-16.652,0.84766-25.312,1.3945-2.4336,0.15625-4.5625-1.4844-5.0976-3.7773h-0.0117c-0.0664-0.27735-0.34375-1.5-0.76953-3.3242-2.3477,0.20312-3.625,0.31641-4.4648,0.39062l-0.30078,1.3555-0.625,2.7852c-0.48437,2.1797-2.3398,3.6992-4.457,3.8477-2.9297,0.26171-6.4922,0.63281-10.027,1.0039l-0.86719,0.0899c-1.7227,0.17968-3.332-0.5586-4.3398-1.8125-0.54688,0.36718-1.1406,0.69921-1.7734,0.99609-0.89453,0.42578-1.9375,0.8125-3.1367,1.1562l-0.0625,0.0195c-0.94141,0.27344-0.70312,0.21094-1.0117,0.30078-0.84375,0.23828-0.74219,0.21094-0.91406,0.25781-1.6172,0.4375-2.8359,0.70704-3.6406,0.8086-6.2031,0.77734-12.387,1.6328-18.57,2.5352-2.6875,0.38672-5.1836-1.4883-5.5703-4.1836-0.0312-0.23047-0.0469-0.46484-0.0469-0.69531h-0.0117v-42.914c0-2.4961,1.8594-4.5586,4.2695-4.8867"/><path fill-rule="nonzero" fill="#cf192e" d="m255.82,413.71c6.7422-1.4219,13.484-2.7773,20.254-4.0039,3.3672-0.60937,5.9805-0.0234,7.7578,1.7969,1.8164,1.8594,2.7266,4.375,2.7266,7.5234,0,2.6484-0.64063,5.0078-1.9375,7.0742-0.86328,1.3789-2.1328,2.5547-3.7656,3.5312,2.5039,0.39453,4.375,1.4648,5.5508,3.2031,1.1758,1.7305,1.7617,4.0391,1.7617,6.8867,0,2.3281-0.42578,4.4609-1.2656,6.4102-0.84375,1.9492-1.9766,3.5352-3.4453,4.7734-0.91015,0.76953-2.2812,1.4102-4.1133,1.9492-2.457,0.71094-4.0664,1.1133-4.8555,1.2148-6.2226,0.77734-12.449,1.6406-18.668,2.5508v-21.461-21.449zm10.906,14.824c1.5625-0.25781,3.1211-0.51563,4.707-0.76563,1.6875-0.26953,2.8594-0.82031,3.5234-1.6641,0.67188-0.83594,0.98829-1.957,0.98829-3.332,0-1.2852-0.32032-2.2383-0.98829-2.8477-0.67187-0.61718-1.8086-0.78125-3.4492-0.50781-1.6133,0.27735-3.1914,0.54688-4.7812,0.83594v8.2812zm0,17.133c1.832-0.2539,3.668-0.51172,5.5273-0.76562,1.8594-0.25391,3.1797-0.83985,3.9414-1.7812,0.7539-0.92969,1.1367-2.1094,1.1367-3.5234,0-1.3086-0.375-2.2969-1.1367-2.9922-0.7461-0.67187-2.082-0.875-3.9648-0.59375-1.8359,0.26563-3.6719,0.53906-5.5039,0.8125v8.8438zm47.812-3.1875c-4.1094,0.35156-8.2266,0.72656-12.316,1.0977-0.57422,2.5586-1.1406,5.1016-1.7109,7.6562-3.6953,0.33594-7.3867,0.72265-11.055,1.1094,2.1836-7.7305,4.3906-15.488,6.5664-23.293,2.1836-7.8281,4.3867-15.68,6.5938-23.52,3.918-0.48047,7.8594-0.97265,11.801-1.457,2.1797,7.4453,4.3906,14.934,6.5664,22.457,2.1836,7.543,4.3906,15.109,6.5938,22.691-3.7656,0.24219-7.5352,0.49219-11.301,0.73437-0.59375-2.5-1.1641-4.9883-1.7383-7.4766zm-2.2539-9.75c-0.67188-2.6797-1.3125-5.3633-1.9609-8.0391-0.64062-2.6641-1.2891-5.3477-1.9297-8.0117-0.64843,2.8125-1.3164,5.625-1.9375,8.4258-0.61328,2.7969-1.2891,5.6055-1.9062,8.3945,2.5781-0.25781,5.1562-0.50781,7.7344-0.76953zm18.91,16.293v-23.281-23.293c6-0.39844,11.996-0.83594,18.023-1.1367,3.3438-0.17187,5.918,0.16797,7.6836,0.87891,1.7539,0.71094,3.1836,2.0781,4.2656,4.1367,1.0703,2.0547,1.6328,4.5781,1.6328,7.5859,0,2.6172-0.41406,4.8867-1.2383,6.8008-0.83593,1.9297-1.9726,3.5039-3.4258,4.7188-0.92969,0.78515-2.1992,1.4414-3.7891,1.9609,1.2891,0.54297,2.2031,1.1055,2.8008,1.6641,0.39453,0.36718,0.98438,1.1836,1.7383,2.4141,0.76172,1.2578,1.2539,2.2109,1.5078,2.8867,1.7266,4.5469,3.4961,9.082,5.2578,13.629-4.0898,0.0234-8.1836,0.10547-12.246,0.21094-1.9336-4.7383-3.8633-9.4844-5.7773-14.211-0.73438-1.8281-1.375-3.0156-1.957-3.5469-0.78125-0.70313-1.6602-1-2.6524-0.94531-0.32031,0.0156-0.64062,0.0234-0.96484,0.0469v9.5078,9.4883c-3.6172,0.16796-7.2383,0.32812-10.859,0.48437zm10.859-28.332c1.5117-0.082,3.0234-0.16406,4.5586-0.24219,0.4961-0.0195,1.457-0.28515,2.8789-0.74219,0.71094-0.23046,1.3086-0.73437,1.7578-1.543,0.44141-0.80079,0.66797-1.7148,0.66797-2.7461,0-1.5117-0.34765-2.6602-1.0625-3.4531-0.72656-0.79297-2.0625-1.1602-4.0391-1.0625-1.5859,0.0781-3.1758,0.17578-4.7617,0.27734v9.5117zm48.98-19.766c3.5938,0.0937,7.1875,0.26954,10.805,0.44532v14.043,14.035c0,2.7812-0.31641,5.3945-0.96875,7.8516-0.63672,2.4336-1.6524,4.5742-3.0195,6.3789-1.3828,1.8125-2.8242,3.0625-4.3398,3.7773-2.1055,0.98438-4.6367,1.4609-7.5859,1.4219-1.6836-0.0156-3.543-0.20313-5.5742-0.55078-2.0078-0.34766-3.6875-1.0117-5.0352-1.9648-1.3516-0.96093-2.5938-2.3047-3.7148-4.0508-1.1328-1.7578-1.9024-3.5625-2.3047-5.4258-0.66016-3.0078-1.0156-5.6641-1.0156-7.9805v-14.074-14.082c3.5938-0.0273,7.1875-0.0508,10.805-0.0664v14.438,14.422c0,2.5859,0.52344,4.6094,1.5859,6.0664,1.0703,1.4648,2.5312,2.2148,4.4102,2.2461,1.8594,0.0352,3.3281-0.66406,4.3906-2.0781,1.043-1.3984,1.5625-3.4219,1.5625-6.0391v-14.391-14.422zm17.945,0.80079c9.6641,0.73437,19.328,1.582,28.996,2.6055v9.8477c-6.043-0.59766-12.094-1.1836-18.145-1.6602v7.4258c5.6055,0.41406,11.207,0.92578,16.832,1.4453v9.418c-5.625-0.46875-11.227-0.9375-16.832-1.3281v9.1992c6.2266,0.41016,12.445,0.89063,18.691,1.3867v10.449c-9.8633-0.69141-19.707-1.3008-29.543-1.7969v-23.496-23.496zm35.492,49.301v-22.938-22.949c6,0.79297,12.02,1.6562,18.047,2.6211,3.3438,0.53906,5.9024,1.3047,7.6602,2.3516,1.7617,1.0469,3.1914,2.6641,4.2852,4.8281,1.0898,2.1562,1.6133,4.6367,1.6133,7.4492,0,2.457-0.42578,4.4961-1.2383,6.1484-0.82032,1.6602-1.9609,2.918-3.4258,3.8164-0.91797,0.5625-2.1758,0.96875-3.7891,1.2031,1.2891,0.72656,2.2266,1.4102,2.8242,2.0508,0.39453,0.42578,0.98047,1.2773,1.7383,2.5898,0.75,1.3008,1.25,2.2969,1.5078,2.9766,1.7305,4.5234,3.4726,9.0234,5.2344,13.492-4.0898-0.49219-8.1602-0.98828-12.223-1.4609-1.9336-4.7695-3.8828-9.5703-5.8008-14.395-0.73047-1.8516-1.3633-3.1094-1.957-3.7266-0.76562-0.78906-1.6602-1.2461-2.6523-1.3711-0.32031-0.043-0.64453-0.0859-0.94141-0.1211v9.2188,9.207c-3.6406-0.35546-7.2617-0.66796-10.883-0.99218zm10.88-26.01c1.5156,0.21484,3.0234,0.42187,4.5625,0.62891,0.49219,0.0703,1.4336-0.0117,2.8516-0.20704,0.71485-0.10546,1.3008-0.48437,1.7578-1.1719,0.45703-0.69141,0.6914-1.5234,0.6914-2.5078,0-1.4453-0.37109-2.6055-1.0898-3.4961-0.71875-0.88281-2.0586-1.4688-4.0117-1.7578-1.5898-0.23437-3.1758-0.47656-4.7617-0.71484v9.2266zm27.465-13.613c3.5938,0.73047,7.2148,1.5195,10.832,2.293v21.484,21.48c-3.6172-0.51172-7.2383-1.0156-10.832-1.5039v-21.875-21.879"/><path fill-rule="nonzero" fill="#003568" d="m236.84,403.07c15.785-5.4453,36.484-9.7852,60.047-12.77,7.4141-0.9375,15.109-1.7383,23.023-2.3984v3.3438c-7.7773,0.64843-15.332,1.4375-22.605,2.3555-23.312,2.9492-43.781,7.2422-59.379,12.629l-1.0859-3.1602zm193.3-14.98c7.75,0.67187,15.281,1.4883,22.539,2.4297,23.961,3.1172,44.867,7.6562,60.555,13.344l-1.1328,3.125c-15.461-5.6016-36.125-10.086-59.852-13.172-7.1172-0.92188-14.504-1.7227-22.109-2.3867v-3.3398"/><path fill-rule="nonzero" fill="#003568" d="m344.01,388.32c-0.67969,0.30859-1.582,0.625-2.7109,0.95312-1.1328,0.32813-2.2656,0.51953-3.3984,0.58203-2.6328,0.13672-4.7305-0.46875-6.2969-1.8281-1.5664-1.3516-2.4141-3.2852-2.543-5.8086-0.13281-2.4102,0.51563-4.3867,1.9492-5.9375,1.4219-1.5547,3.4805-2.3984,6.1719-2.5352,1.0195-0.0547,1.9961-0.0156,2.9219,0.12109,0.9336,0.13282,1.9766,0.44532,3.1367,0.9336l0.19141,3.6289-0.44532,0.0234c-0.20703-0.13672-0.5-0.32812-0.88281-0.57422-0.39062-0.24609-0.76562-0.45703-1.1211-0.62109-0.41406-0.20703-0.89453-0.36719-1.4414-0.5-0.53906-0.12891-1.1172-0.17969-1.7226-0.15235-0.70704,0.0352-1.3398,0.17969-1.9024,0.41797-0.5664,0.23828-1.0664,0.58203-1.5,1.0352-0.41406,0.4375-0.73437,0.98437-0.95312,1.6406-0.21485,0.65235-0.30469,1.3984-0.26172,2.2344,0.0859,1.7148,0.61328,3,1.5664,3.8633,0.95704,0.85938,2.3203,1.2383,4.0977,1.1484,0.15234-0.004,0.32031-0.0195,0.50391-0.0391,0.18359-0.0117,0.35156-0.0352,0.5-0.0547l-0.15625-3.0352-3.0898,0.16406-0.15234-2.9258,7.1445-0.375,0.39453,7.6406"/><path fill-rule="nonzero" fill="#003568" d="m355.16,378.03c-0.008-0.39063-0.0937-0.72266-0.26563-0.99609-0.16015-0.27344-0.4375-0.49219-0.82812-0.64454-0.27344-0.10546-0.58984-0.16406-0.95313-0.18359-0.35546-0.0156-0.77343-0.0195-1.2578-0.0156l-1.4453,0.0273,0.0703,4.1719,1.2344-0.0195c0.63281-0.0156,1.1719-0.0547,1.5938-0.12109,0.42968-0.0742,0.79297-0.21875,1.0781-0.44531,0.27344-0.21875,0.47656-0.46485,0.59766-0.72657,0.12109-0.25781,0.17969-0.60937,0.17578-1.0469zm6.4141,10.641-4.875,0.082-4.3281-5.6055-1.8398,0.0312,0.10157,5.6836-3.9805,0.0664-0.26563-15.492,6.6992-0.11719c0.91797-0.0156,1.707,0.0234,2.3672,0.11719,0.66015,0.0859,1.2773,0.30469,1.8594,0.64062,0.58985,0.33594,1.0586,0.78125,1.418,1.3203,0.35156,0.54687,0.53516,1.2383,0.55078,2.0703,0.0156,1.1445-0.23047,2.082-0.7539,2.8086-0.51172,0.73438-1.2617,1.3477-2.2344,1.8398l5.2812,6.5547"/><path fill-rule="nonzero" fill="#003568" d="m373.54,388.54-11.211,0,0-15.5,11.211,0,0,2.9961-7.2383,0,0,2.6758,6.7148,0,0,3-6.7148,0,0,3.832,7.2383,0,0,2.9961zm-0.95704-17.242-2.75,0-1.9297-2.2773-1.9141,2.2773-2.7031,0,3.3438-4.0898,2.6094,0,3.3438,4.0898"/><path fill-rule="nonzero" fill="#003568" d="m392.12,388.86-3.9766-0.0703,0.17968-10.375-2.9922,6.6797-2.7539-0.0508-2.7539-6.7774-0.18359,10.371-3.7656-0.0625,0.26953-15.492,4.6406,0.0781,3.3516,7.8359,3.6094-7.7109,4.6406,0.0742-0.26562,15.5"/><path fill-rule="nonzero" fill="#003568" d="m403.24,389.33-9.0703-0.3125,0.0937-2.75,2.5352,0.0859,0.35156-9.9922-2.5391-0.0898,0.0977-2.75,9.0742,0.31641-0.0977,2.75-2.5352-0.0937-0.35547,9.9961,2.543,0.0937-0.0976,2.7461"/><path fill-rule="nonzero" fill="#003568" d="m420.96,382.34c-0.13281,2.4648-0.94141,4.3867-2.4336,5.7656-1.4883,1.3789-3.4805,2.0039-5.9766,1.8711-2.4883-0.13281-4.3984-0.96094-5.7422-2.4844-1.332-1.5312-1.9375-3.5234-1.8086-5.9922,0.12891-2.4844,0.94141-4.4219,2.4297-5.7891,1.4883-1.3711,3.4805-1.9922,5.9688-1.8594,2.4805,0.13281,4.3945,0.95703,5.7383,2.4727,1.3438,1.5234,1.9531,3.5234,1.8242,6.0156zm-5.4961,3.6406c0.40625-0.45313,0.72656-0.9961,0.94531-1.625,0.21875-0.62891,0.35547-1.3828,0.39844-2.2461,0.0508-0.93359-0.0117-1.7226-0.19922-2.3867-0.17969-0.66407-0.42969-1.207-0.75391-1.6211-0.33594-0.4375-0.72656-0.76172-1.1719-0.97265-0.45703-0.21094-0.92969-0.33204-1.4297-0.35547-0.50781-0.0234-0.98438,0.0391-1.4453,0.19531-0.45703,0.15625-0.88282,0.43359-1.2774,0.82812-0.36718,0.3711-0.67968,0.89063-0.92578,1.5625-0.26172,0.67188-0.40625,1.457-0.45703,2.3594-0.0469,0.92187,0.0156,1.7109,0.19531,2.3672,0.17578,0.66015,0.42578,1.2031,0.75391,1.6328,0.32812,0.42187,0.71094,0.74609,1.1641,0.96875,0.45703,0.21875,0.9375,0.33984,1.4531,0.36719,0.51562,0.0234,1.0078-0.0469,1.4844-0.22266,0.47266-0.17187,0.89063-0.45703,1.2656-0.85156"/></g></svg>